<svg width="36" height="24" viewBox="0 0 36 24" fill="none" xmlns="http://www.w3.org/2000/svg">
<path d="M0 0.000244141H36V12.9562V14.5001V16.4643V24.0002H0V11.7868V11.0001V10.1163V0.000244141Z" fill="#016FD0"/>
<path d="M10.6475 16.6906V12.9302H14.6271L15.0541 13.4871L15.4952 12.9302H29.9405V16.4313C29.9405 16.4313 29.5627 16.6869 29.1258 16.6906H21.1272L20.6458 16.0978V16.6906H19.0683V15.6787C19.0683 15.6787 18.8528 15.82 18.3869 15.82H17.8499V16.6906H15.4615L15.0351 16.1218L14.6022 16.6906H10.6475Z" fill="white"/>
<path d="M6 10.0959L6.89744 8.00269H8.44945L8.95876 9.17524V8.00269H10.8881L11.1913 8.85017L11.4852 8.00269H20.1458V8.42875C20.1458 8.42875 20.601 8.00269 21.3493 8.00269L24.1593 8.01251L24.6598 9.16972V8.00269H26.2744L26.7187 8.66741V8.00269H28.3481V11.7631H26.7187L26.2929 11.0963V11.7631H23.9207L23.6822 11.1703H23.0445L22.8098 11.7631H21.2011C20.5573 11.7631 20.1458 11.3458 20.1458 11.3458V11.7631H17.7202L17.2388 11.1703V11.7631H8.21953L7.98115 11.1703H7.34547L7.10877 11.7631H6V10.0959Z" fill="white"/>
<path d="M7.21533 8.46606L6.00488 11.2818H6.79294L7.01629 10.7179H8.31468L8.53686 11.2818H9.34228L8.133 8.46606H7.21533ZM7.66317 9.12136L8.05893 10.1066H7.26624L7.66317 9.12136Z" fill="#016FD0"/>
<path d="M9.42529 11.2815V8.46582L10.5452 8.46998L11.1965 10.2854L11.8323 8.46582H12.9432V11.2815H12.2396V9.2068L11.4938 11.2815H10.8768L10.1289 9.2068V11.2815H9.42529Z" fill="#016FD0"/>
<path d="M13.4248 11.2815V8.46582H15.7207V9.09565H14.1358V9.57728H15.6837V10.1701H14.1358V10.6702H15.7207V11.2815H13.4248Z" fill="#016FD0"/>
<path d="M16.1279 8.46606V11.2818H16.8315V10.2815H17.1278L17.9714 11.2818H18.8312L17.9054 10.2444C18.2853 10.2123 18.6773 9.88607 18.6773 9.37955C18.6773 8.78703 18.2124 8.46606 17.6936 8.46606H16.1279ZM16.8315 9.09589H17.6358C17.8287 9.09589 17.9691 9.24688 17.9691 9.39228C17.9691 9.57934 17.7872 9.68867 17.6462 9.68867H16.8315V9.09589Z" fill="#016FD0"/>
<path d="M19.6828 11.2815H18.9644V8.46582H19.6828V11.2815Z" fill="#016FD0"/>
<path d="M21.3863 11.2815H21.2312C20.4809 11.2815 20.0254 10.6901 20.0254 9.88525C20.0254 9.06048 20.4758 8.46582 21.4233 8.46582H22.201V9.1327H21.3949C21.0102 9.1327 20.7382 9.433 20.7382 9.8922C20.7382 10.4375 21.0493 10.6665 21.4974 10.6665H21.6825L21.3863 11.2815Z" fill="#016FD0"/>
<path d="M22.9175 8.46606L21.707 11.2818H22.4951L22.7184 10.7179H24.0168L24.239 11.2818H25.0444L23.8351 8.46606H22.9175ZM23.3653 9.12136L23.7611 10.1066H22.9684L23.3653 9.12136Z" fill="#016FD0"/>
<path d="M25.1265 11.2815V8.46582H26.021L27.1632 10.2349V8.46582H27.8667V11.2815H27.0012L25.83 9.46614V11.2815H25.1265Z" fill="#016FD0"/>
<path d="M11.1289 16.2088V13.3931H13.4248V14.0229H11.8399V14.5045H13.3878V15.0973H11.8399V15.5975H13.4248V16.2088H11.1289Z" fill="#016FD0"/>
<path d="M22.3789 16.2088V13.3931H24.6748V14.0229H23.0899V14.5045H24.6304V15.0973H23.0899V15.5975H24.6748V16.2088H22.3789Z" fill="#016FD0"/>
<path d="M13.5139 16.2088L14.6318 14.8183L13.4873 13.3931H14.3737L15.0553 14.2741L15.7392 13.3931H16.5909L15.4615 14.8009L16.5814 16.2088H15.6951L15.0333 15.3416L14.3876 16.2088H13.5139Z" fill="#016FD0"/>
<path d="M16.665 13.3936V16.2093H17.3871V15.3201H18.1278C18.7544 15.3201 19.2294 14.9875 19.2294 14.3406C19.2294 13.8048 18.8569 13.3936 18.2192 13.3936H16.665ZM17.3871 14.0303H18.1671C18.3696 14.0303 18.5143 14.1545 18.5143 14.3545C18.5143 14.5424 18.3703 14.6787 18.1648 14.6787H17.3871V14.0303Z" fill="#016FD0"/>
<path d="M19.5347 13.3931V16.2088H20.2383V15.2085H20.5345L21.3781 16.2088H22.2379L21.3121 15.1714C21.6921 15.1393 22.084 14.8131 22.084 14.3065C22.084 13.714 21.6192 13.3931 21.1004 13.3931H19.5347ZM20.2383 14.0229H21.0425C21.2354 14.0229 21.3758 14.1739 21.3758 14.3193C21.3758 14.5063 21.194 14.6157 21.0529 14.6157H20.2383V14.0229Z" fill="#016FD0"/>
<path d="M25.0005 16.2088V15.5975H26.4086C26.6169 15.5975 26.7071 15.4848 26.7071 15.3613C26.7071 15.2429 26.6172 15.1232 26.4086 15.1232H25.7723C25.2192 15.1232 24.9111 14.7861 24.9111 14.2799C24.9111 13.8284 25.1932 13.3931 26.0151 13.3931H27.3853L27.089 14.0266H25.904C25.6775 14.0266 25.6078 14.1455 25.6078 14.2591C25.6078 14.3758 25.6939 14.5045 25.867 14.5045H26.5335C27.1501 14.5045 27.4177 14.8544 27.4177 15.3127C27.4177 15.8053 27.1195 16.2088 26.5 16.2088H25.0005Z" fill="#016FD0"/>
<path d="M27.583 16.2088V15.5975H28.9911C29.1994 15.5975 29.2896 15.4848 29.2896 15.3613C29.2896 15.2429 29.1997 15.1232 28.9911 15.1232H28.3548C27.8017 15.1232 27.4937 14.7861 27.4937 14.2799C27.4937 13.8284 27.7757 13.3931 28.5976 13.3931H29.9678L29.6715 14.0266H28.4865C28.26 14.0266 28.1903 14.1455 28.1903 14.2591C28.1903 14.3758 28.2765 14.5045 28.4495 14.5045H29.1161C29.7326 14.5045 30.0002 14.8544 30.0002 15.3127C30.0002 15.8053 29.702 16.2088 29.0825 16.2088H27.583Z" fill="#016FD0"/>
</svg>
