<svg width="36" height="24" viewBox="0 0 36 24" fill="none" xmlns="http://www.w3.org/2000/svg">
<rect width="36" height="24" rx="2" fill="#222222"/>
<path d="M9.21372 7.78086C8.88916 8.16491 8.36987 8.46783 7.85058 8.42456C7.78567 7.90527 8.03991 7.35352 8.33742 7.01274C8.66197 6.61786 9.22995 6.33658 9.68974 6.31494C9.74383 6.85587 9.53287 7.38598 9.21372 7.78086ZM9.68433 8.52734C8.93244 8.48406 8.28873 8.95467 7.93172 8.95467C7.5693 8.95467 7.02296 8.54897 6.42794 8.55979C5.65441 8.57061 4.93498 9.00876 4.5401 9.70656C3.72871 11.1022 4.32914 13.1685 5.11349 14.3044C5.49755 14.867 5.95733 15.4837 6.56317 15.462C7.13656 15.4404 7.36375 15.0888 8.05613 15.0888C8.75393 15.0888 8.95407 15.462 9.55991 15.4512C10.1874 15.4404 10.5823 14.8886 10.9663 14.3261C11.4045 13.6878 11.583 13.0657 11.5938 13.0333C11.583 13.0224 10.3821 12.5627 10.3713 11.1779C10.3605 10.0203 11.3179 9.46855 11.3612 9.43609C10.8203 8.63552 9.97643 8.54897 9.68433 8.52734ZM14.028 6.95865V15.3917H15.337V12.5086H17.1491C18.8044 12.5086 19.9674 11.3726 19.9674 9.7282C19.9674 8.08378 18.826 6.95865 17.1924 6.95865H14.028ZM15.337 8.06214H16.8462C17.9822 8.06214 18.6313 8.66798 18.6313 9.7336C18.6313 10.7992 17.9822 11.4105 16.8408 11.4105H15.337V8.06214ZM22.3583 15.4566C23.1805 15.4566 23.9432 15.0401 24.2894 14.3802H24.3164V15.3917H25.5281V11.1941C25.5281 9.97702 24.5544 9.19268 23.0561 9.19268C21.6659 9.19268 20.6381 9.98784 20.6002 11.0805H21.7795C21.8768 10.5612 22.3583 10.2204 23.0182 10.2204C23.8188 10.2204 24.2677 10.5937 24.2677 11.2807V11.7459L22.6341 11.8432C21.1141 11.9352 20.2919 12.5572 20.2919 13.6391C20.2919 14.7318 21.1412 15.4566 22.3583 15.4566ZM22.7099 14.4559C22.0121 14.4559 21.5685 14.1205 21.5685 13.6066C21.5685 13.0765 21.9958 12.7682 22.8126 12.7195L24.2677 12.6276V13.1036C24.2677 13.8933 23.597 14.4559 22.7099 14.4559ZM27.1455 17.6852C28.4221 17.6852 29.0225 17.1984 29.5472 15.7217L31.8461 9.27382H30.5155L28.9738 14.2558H28.9468L27.4051 9.27382H26.0366L28.2544 15.4133L28.1354 15.7866C27.9352 16.4195 27.6107 16.6629 27.0319 16.6629C26.9291 16.6629 26.729 16.6521 26.6478 16.6413V17.6528C26.7235 17.6744 27.0481 17.6852 27.1455 17.6852Z" fill="white"/>
</svg>
