<svg width="36" height="24" viewBox="0 0 36 24" fill="none" xmlns="http://www.w3.org/2000/svg">
<g clip-path="url(#clip0_2911_160)">
<path d="M34.56 0H1.44C0.64471 0 0 0.716344 0 1.6V22.4C0 23.2837 0.64471 24 1.44 24H34.56C35.3553 24 36 23.2837 36 22.4V1.6C36 0.716344 35.3553 0 34.56 0Z" fill="#10427A"/>
<path d="M21.0086 5.35913H15.4712V15.3492H21.0086V5.35913Z" fill="#FF5F00"/>
<path d="M15.8227 10.3541C15.8227 8.32431 16.772 6.52398 18.2311 5.35907C17.1587 4.51186 15.8051 4 14.3285 4C10.8302 4 8 6.84169 8 10.3541C8 13.8665 10.8302 16.7082 14.3285 16.7082C15.8051 16.7082 17.1587 16.1963 18.2311 15.3491C16.772 14.2018 15.8227 12.3839 15.8227 10.3541Z" fill="#EB001B"/>
<path d="M28.4796 10.3541C28.4796 13.8665 25.6493 16.7082 22.1511 16.7082C20.6745 16.7082 19.3209 16.1963 18.2485 15.3491C19.7252 14.1842 20.6569 12.3839 20.6569 10.3541C20.6569 8.32431 19.7076 6.52398 18.2485 5.35907C19.3209 4.51186 20.6745 4 22.1511 4C25.6493 4 28.4796 6.85934 28.4796 10.3541Z" fill="#F79E1B"/>
<path d="M10.9871 20.7646V19.7058C10.9871 19.2999 10.7138 19.0352 10.2452 19.0352C10.011 19.0352 9.75714 19.1058 9.58143 19.3352C9.44476 19.1411 9.24952 19.0352 8.95667 19.0352C8.76143 19.0352 8.56619 19.0881 8.41 19.2823V19.0705H8V20.7646H8.41V19.8293C8.41 19.5293 8.58571 19.3881 8.85905 19.3881C9.13238 19.3881 9.26905 19.547 9.26905 19.8293V20.7646H9.67905V19.8293C9.67905 19.5293 9.87429 19.3881 10.1281 19.3881C10.4014 19.3881 10.5381 19.547 10.5381 19.8293V20.7646H10.9871ZM17.059 19.0705H16.3952V18.5587H15.9852V19.0705H15.6143V19.4058H15.9852V20.1823C15.9852 20.5705 16.161 20.7999 16.6295 20.7999C16.8052 20.7999 17.0005 20.747 17.1371 20.6764L17.02 20.3587C16.9029 20.4293 16.7662 20.447 16.6686 20.447C16.4733 20.447 16.3952 20.3411 16.3952 20.1646V19.4058H17.059V19.0705ZM20.5343 19.0352C20.3 19.0352 20.1438 19.1411 20.0462 19.2823V19.0705H19.6362V20.7646H20.0462V19.8117C20.0462 19.5293 20.1829 19.3705 20.4367 19.3705C20.5148 19.3705 20.6124 19.3881 20.6905 19.4058L20.8076 19.0528C20.7295 19.0352 20.6124 19.0352 20.5343 19.0352ZM15.2824 19.2117C15.0871 19.0881 14.8138 19.0352 14.521 19.0352C14.0524 19.0352 13.74 19.247 13.74 19.5823C13.74 19.8646 13.9743 20.0234 14.3843 20.0764L14.5795 20.094C14.7943 20.1293 14.9114 20.1823 14.9114 20.2705C14.9114 20.394 14.7552 20.4823 14.4819 20.4823C14.2086 20.4823 13.9938 20.394 13.8571 20.3058L13.6619 20.5881C13.8767 20.7293 14.1695 20.7999 14.4624 20.7999C15.009 20.7999 15.3214 20.5705 15.3214 20.2528C15.3214 19.9528 15.0676 19.794 14.6771 19.7411L14.4819 19.7234C14.3062 19.7058 14.1695 19.6705 14.1695 19.5646C14.1695 19.4411 14.3062 19.3705 14.521 19.3705C14.7552 19.3705 14.9895 19.4587 15.1067 19.5117L15.2824 19.2117ZM26.1767 19.0352C25.9424 19.0352 25.7862 19.1411 25.6886 19.2823V19.0705H25.2786V20.7646H25.6886V19.8117C25.6886 19.5293 25.8252 19.3705 26.079 19.3705C26.1571 19.3705 26.2548 19.3881 26.3329 19.4058L26.45 19.0528C26.3719 19.0352 26.2548 19.0352 26.1767 19.0352ZM20.9443 19.9175C20.9443 20.4293 21.3348 20.7999 21.94 20.7999C22.2133 20.7999 22.4086 20.747 22.6038 20.6058L22.4086 20.3058C22.2524 20.4117 22.0962 20.4646 21.9205 20.4646C21.5886 20.4646 21.3543 20.2528 21.3543 19.9175C21.3543 19.5999 21.5886 19.3881 21.9205 19.3705C22.0962 19.3705 22.2524 19.4234 22.4086 19.5293L22.6038 19.2293C22.4086 19.0881 22.2133 19.0352 21.94 19.0352C21.3348 19.0352 20.9443 19.4058 20.9443 19.9175ZM24.7319 19.9175V19.0705H24.3219V19.2823C24.1852 19.1234 23.99 19.0352 23.7362 19.0352C23.209 19.0352 22.799 19.4058 22.799 19.9175C22.799 20.4293 23.209 20.7999 23.7362 20.7999C24.0095 20.7999 24.2048 20.7117 24.3219 20.5528V20.7646H24.7319V19.9175ZM23.2286 19.9175C23.2286 19.6175 23.4433 19.3705 23.7948 19.3705C24.1267 19.3705 24.361 19.5999 24.361 19.9175C24.361 20.2175 24.1267 20.4646 23.7948 20.4646C23.4433 20.447 23.2286 20.2175 23.2286 19.9175ZM18.3281 19.0352C17.7814 19.0352 17.391 19.3881 17.391 19.9175C17.391 20.447 17.7814 20.7999 18.3476 20.7999C18.621 20.7999 18.8943 20.7293 19.109 20.5705L18.9138 20.3058C18.7576 20.4117 18.5624 20.4823 18.3671 20.4823C18.1133 20.4823 17.8595 20.3764 17.801 20.0764H19.1871V19.9352C19.2067 19.3881 18.8552 19.0352 18.3281 19.0352ZM18.3281 19.3528C18.5819 19.3528 18.7576 19.494 18.7967 19.7587H17.8205C17.8595 19.5293 18.0352 19.3528 18.3281 19.3528ZM28.5 19.9175V18.3999H28.09V19.2823C27.9533 19.1234 27.7581 19.0352 27.5043 19.0352C26.9771 19.0352 26.5671 19.4058 26.5671 19.9175C26.5671 20.4293 26.9771 20.7999 27.5043 20.7999C27.7776 20.7999 27.9729 20.7117 28.09 20.5528V20.7646H28.5V19.9175ZM26.9967 19.9175C26.9967 19.6175 27.2114 19.3705 27.5629 19.3705C27.8948 19.3705 28.129 19.5999 28.129 19.9175C28.129 20.2175 27.8948 20.4646 27.5629 20.4646C27.2114 20.447 26.9967 20.2175 26.9967 19.9175ZM13.291 19.9175V19.0705H12.881V19.2823C12.7443 19.1234 12.549 19.0352 12.2952 19.0352C11.7681 19.0352 11.3581 19.4058 11.3581 19.9175C11.3581 20.4293 11.7681 20.7999 12.2952 20.7999C12.5686 20.7999 12.7638 20.7117 12.881 20.5528V20.7646H13.291V19.9175ZM11.7681 19.9175C11.7681 19.6175 11.9829 19.3705 12.3343 19.3705C12.6662 19.3705 12.9005 19.5999 12.9005 19.9175C12.9005 20.2175 12.6662 20.4646 12.3343 20.4646C11.9829 20.447 11.7681 20.2175 11.7681 19.9175Z" fill="white"/>
</g>
<defs>
<clipPath id="clip0_2911_160">
<rect width="36" height="24" fill="white"/>
</clipPath>
</defs>
</svg>
