<svg width="36" height="24" viewBox="0 0 36 24" fill="none" xmlns="http://www.w3.org/2000/svg">
<path d="M34.56 0H1.44C0.64471 0 0 0.716344 0 1.6V22.4C0 23.2837 0.64471 24 1.44 24H34.56C35.3553 24 36 23.2837 36 22.4V1.6C36 0.716344 35.3553 0 34.56 0Z" fill="#25459A"/>
<path d="M18.0484 10.5576C18.0348 11.6719 19.0008 12.2938 19.7286 12.6636C20.4763 13.043 20.7274 13.2862 20.7246 13.6254C20.7189 14.1447 20.1281 14.3738 19.5752 14.3827C18.6106 14.3984 18.0498 14.1112 17.6039 13.894L17.2564 15.5894C17.7038 15.8044 18.5321 15.9918 19.3911 16C21.4074 16 22.7266 14.9622 22.7337 13.3532C22.7416 11.3111 20.0247 11.1981 20.0432 10.2853C20.0496 10.0086 20.3029 9.71322 20.858 9.63809C21.1327 9.60015 21.8911 9.57114 22.7508 9.98401L23.0883 8.34369C22.626 8.16812 22.0317 8 21.2918 8C19.394 8 18.0591 9.05189 18.0484 10.5576ZM26.331 8.14134C25.9629 8.14134 25.6525 8.36526 25.5141 8.70895L22.6338 15.8795H24.6487L25.0496 14.7242L27.5118 14.7242L27.7444 15.8795H29.5203L27.9706 8.14134H26.331ZM26.6129 10.2317L27.1943 13.1374L25.6019 13.1374L26.6129 10.2317ZM15.6054 8.14134L14.0173 15.8795H15.9372L17.5247 8.14134L15.6054 8.14134ZM12.7651 8.14134L10.7667 13.4082L9.95832 8.92989C9.86342 8.42998 9.48885 8.14134 9.0729 8.14134H5.80592L5.76025 8.366C6.43092 8.51776 7.1929 8.76251 7.65452 9.02436C7.93705 9.1843 8.01768 9.32416 8.11043 9.7043L9.64154 15.8795H11.6706L14.7814 8.14134H12.7651Z" fill="white"/>
</svg>
